<svg width="276" height="50" viewBox="0 0 276 50" fill="none" xmlns="http://www.w3.org/2000/svg">
<g clip-path="url(#clip0_161_197)">
<path d="M114.345 10.8491V23.5926C114.345 28.8041 112.137 31.2919 108.434 31.2919C105.064 31.2919 103.577 29.3366 103.577 25.7076V10.8491H94.0789V27.3357C94.0789 34.4416 97.3403 38.8315 104.576 38.8315C109.433 38.8315 112.586 36.5491 114.353 33.0265V37.9642H123.85V10.8491H114.353H114.345Z" fill="#2157A4"/>
<path d="M146.75 14.1052V23.0979L146.712 22.999C146.727 23.2577 146.75 23.4935 146.75 23.7598C146.75 28.1496 145.201 30.3255 140.568 30.3255C135.936 30.3255 133.999 28.4768 133.999 23.7598C133.999 19.0428 135.796 17.293 140.437 17.2549L146.75 17.3462L141.885 10.0349H137.307C128.196 10.0349 124.493 16.2735 124.493 23.6C124.493 30.9266 128.196 37.1652 137.307 37.1652C141.831 37.1652 144.876 35.6436 146.75 33.0416V37.8651C146.75 41.5017 144.821 43.0157 140.623 43.0157C136.424 43.0157 134.766 41.3876 134.433 39.0063H125.206C125.593 44.8645 129.785 49.9999 140.119 49.9999C151.809 49.9999 156.248 45.184 156.248 36.4044V10.849H146.75V14.0976V14.1052Z" fill="#2157A4"/>
<path d="M177.08 9.98174C172.385 9.98174 169.24 11.7164 167.357 14.5922V0H157.859V37.9717H167.357V24.4066C167.357 19.5831 169.015 17.2474 173.88 17.2474C178.745 17.2474 180.233 19.3624 180.233 24.4066C180.233 29.4507 178.575 31.5657 173.88 31.5657H167.365L173.175 38.8314H177.087C186.143 38.8314 189.738 32.1059 189.738 24.3533C189.738 16.8138 186.143 9.98174 177.087 9.98174H177.08Z" fill="#2157A4"/>
<path d="M204.442 21.2035V22.5273H197.012V11.8533H204.302V13.1771H198.5V16.4029H203.016V17.6962H198.5V21.2035H204.442Z" fill="#2157A4"/>
<path d="M209.826 17.2398L208.137 18.8679V22.5197H206.65V11.8533H208.137V17.1865L213.568 11.8533H215.427L210.879 16.2355L215.737 22.5273H213.909L209.818 17.2474L209.826 17.2398Z" fill="#2157A4"/>
<path d="M215.961 17.1865C215.961 13.9607 218.076 11.7087 221.105 11.7087C224.134 11.7087 226.249 13.8694 226.249 17.1865C226.249 20.5036 224.134 22.6643 221.105 22.6643C218.076 22.6643 215.961 20.5036 215.961 17.1865ZM224.739 17.1865C224.739 14.6607 223.306 13.0021 221.105 13.0021C218.905 13.0021 217.472 14.6607 217.472 17.1865C217.472 19.7124 218.905 21.3709 221.105 21.3709C223.306 21.3709 224.739 19.7124 224.739 17.1865Z" fill="#2157A4"/>
<path d="M241.542 19.2939C241.542 21.2568 240.085 22.5197 237.8 22.5197H233.253V11.8533H240.682V13.1771H234.732V16.0681H237.792C240.085 16.0681 241.542 17.3311 241.542 19.2939ZM240.031 19.2939C240.031 18.0006 239.233 17.3539 237.599 17.3539H234.74V21.2264H237.599C239.226 21.2264 240.031 20.5797 240.031 19.2863V19.2939Z" fill="#2157A4"/>
<path d="M250.164 19.8493H244.765L243.68 22.5197H242.138L246.601 11.8533H248.375L252.837 22.5197H251.264L250.18 19.8493H250.164ZM249.622 18.5559L247.445 13.2227L245.268 18.5559H249.614H249.622Z" fill="#2157A4"/>
<path d="M263.551 11.8533V22.5197H262.064V17.7191H256.176V22.5197H254.688V11.8533H256.176V16.3724H262.064V11.8533H263.551Z" fill="#2157A4"/>
<path d="M270.082 17.2398L268.393 18.8679V22.5197H266.905V11.8533H268.393V17.1865L273.823 11.8533H275.683L271.135 16.2355L275.992 22.5273H274.164L270.074 17.2474L270.082 17.2398Z" fill="#2157A4"/>
<path d="M200.181 32.0982L198.492 33.7263V37.3781H197.005V26.7117H198.492V32.0449L203.923 26.7117H205.782L201.234 31.0939L206.092 37.3857H204.264L200.173 32.1058L200.181 32.0982Z" fill="#2157A4"/>
<path d="M216.264 29.9375C216.264 31.9003 214.807 33.1633 212.522 33.1633H209.524V37.3781H208.036V26.7117H212.522C214.807 26.7117 216.264 27.9746 216.264 29.9375ZM214.753 29.9375C214.753 28.6745 213.955 28.0279 212.351 28.0279H209.516V31.8471H212.351C213.955 31.8471 214.753 31.2004 214.753 29.9375Z" fill="#2157A4"/>
<path d="M224.165 34.7077H218.766L217.681 37.3781H216.14L220.602 26.7117H222.376L226.838 37.3781H225.266L224.181 34.7077H224.165ZM223.623 33.4143L221.446 28.0811L219.269 33.4143H223.615H223.623Z" fill="#2157A4"/>
<path d="M227.264 23.8967H228.868V25.4716H227.264V23.8967ZM228.697 26.7041H230.185V37.3706H228.697V26.7041ZM230.014 23.8967H231.618V25.4716H230.014V23.8967Z" fill="#2157A4"/>
<path d="M242.402 26.7041V37.3706H240.914V32.5699H235.026V37.3706H233.539V26.7041H235.026V31.2233H240.914V26.7041H242.402Z" fill="#2157A4"/>
<path d="M254.619 26.7041V37.3706H253.131V28.8876L247.213 37.3706H245.756V26.7041H247.244V35.1262L253.131 26.7041H254.619Z" fill="#2157A4"/>
<path d="M41.2602 25.3652H41.2679C44.9787 22.4817 46.9852 18.5408 46.9852 13.8694C46.9852 12.6597 46.7605 11.1458 46.4971 10.1643C47.8141 11.374 48.1085 13.2684 48.1085 14.965V15.0335C48.1085 19.8569 45.9084 24.0718 42.3603 26.8792L42.2983 26.9324C38.8199 29.6257 36.8832 33.7036 36.8832 38.2456C36.8832 38.451 36.8909 38.6488 36.8987 38.8542C37.0304 41.9583 38.4093 44.7504 40.563 46.7513C40.0827 45.6025 39.8038 44.3472 39.8038 43.031C39.8038 39.5846 41.6243 36.5566 44.3745 34.8219H44.39C49.867 31.3451 53.4771 25.3119 53.4771 18.4342C53.4771 11.5566 49.5881 5.08976 43.7857 1.68896C43.7934 1.95525 43.8012 2.22914 43.8012 2.50302C43.8012 8.42968 41.3919 13.5271 37.1698 17.4072L37.0071 17.5517C33.9316 20.321 31.7625 24.3761 31.7625 28.9257C31.7625 32.1287 32.878 35.1111 34.5901 37.5761C34.5901 31.9081 37.4487 28.2182 41.2757 25.3728L41.2602 25.3652Z" fill="#76B72D"/>
<path d="M34.195 43.0463L31.7237 39.4857C29.4848 36.2523 28.2995 32.6005 28.2995 28.9258C28.2995 23.7599 30.6159 18.7006 34.6598 15.0563L34.6753 15.0411L34.6908 15.0259L34.8302 14.9042C38.4325 11.5795 40.3383 7.28853 40.3383 2.50308C40.3383 2.27484 40.3383 2.0466 40.3228 1.81836L40.3073 1.49121L0 24.3534L34.5281 43.9288C34.4041 43.6397 34.2957 43.343 34.195 43.0463Z" fill="#76B72D"/>
<path d="M53.8955 7.1897C55.8477 10.5829 56.9246 14.4478 56.9246 18.442C56.9246 26.187 53.0046 33.3233 46.4197 37.5686L46.3965 37.5838L46.2338 37.6827C44.3668 38.8619 43.2512 40.8552 43.2512 43.0311C43.2512 43.8604 43.4139 44.6745 43.747 45.4505L44.3668 46.9112L84.1628 24.3458L53.8955 7.1897Z" fill="#76B72D"/>
</g>
<defs>
<clipPath id="clip0_161_197">
<rect width="276" height="50" fill="white"/>
</clipPath>
</defs>
</svg>
